<?xml version="1.0" encoding="utf-8"?>
<!-- Generator: Adobe Illustrator 16.0.0, SVG Export Plug-In . SVG Version: 6.00 Build 0)  -->
<!DOCTYPE svg PUBLIC "-//W3C//DTD SVG 1.1//EN" "http://www.w3.org/Graphics/SVG/1.1/DTD/svg11.dtd">
<svg version="1.1" xmlns="http://www.w3.org/2000/svg" xmlns:xlink="http://www.w3.org/1999/xlink" x="0px" y="0px" width="144px"
	 height="144px" viewBox="0 0 144 144" enable-background="new 0 0 144 144" xml:space="preserve">
<g id="Layer_1">
</g>
<g id="Layer_2_copy">
	<g>
		<text transform="matrix(1 0 0 1 14.8174 133.0264)" fill="#FFFFFF" font-family="'Futura-Medium'" font-size="12.0671">LORENZO STUDIOS</text>
	</g>
	<path fill="#FFFFFF" d="M128.016,71.113c-1.169-1.388-19.36,14.045-31.671,24.405c-3.336,2.807-5.851,4.998-7.74,6.723
		c-1.417-0.621-3.723-0.508-7.016,1.781c-3.811,2.648-6.058,5.15-11.437,6.496H67.09c-26.688,0-48.401-21.713-48.401-48.401
		c0-26.688,21.713-48.401,48.401-48.401c26.66,0,48.356,21.668,48.402,48.368c-0.126,1.074-1.121,1.518-5.135,1.318
		c-1.14-0.056-2.899-2.047-4.313-3.647c-1.993-2.257-4.055-4.591-6.438-4.591c-2.589,0-4.582,2.417-6.509,4.754
		c-1.279,1.552-2.871,3.483-3.927,3.483h-7.114c-2.026,0-2.395,2.599-3.062,7.318c-0.266,1.881-0.716,5.064-1.275,6.578
		c-1.028-3.422-1.485-14.628-1.8-22.325c-0.79-19.358-1.299-24.271-4.124-24.271c-2.643,0-3.25,4.044-4.263,20.116
		c-0.393,6.212-0.965,15.312-1.931,17.91c-0.353-0.424-0.787-1.061-1.112-1.535c-1.273-1.864-2.591-3.792-4.509-3.792
		c-2.14,0-3.155,0.033-4.136,0.065c-0.99,0.032-2.013,0.065-4.235,0.065c-0.744,0-2.002-1.272-3.013-2.296
		c-1.498-1.519-3.049-3.088-4.916-3.088c-1.767,0-3.282,1.473-4.888,3.031c-1.023,0.993-2.503,2.753-4.211,2.733
		c-2.131-0.023-6.741,1.037-9.97-1.578c0.395,3.986,3.6,4.08,11.013,3.939c1.487-0.028,3.494-1.59,5.077-3.127
		c0.926-0.898,2.324-2.256,2.979-2.256c0.721,0,2.019,1.312,2.965,2.271c1.511,1.529,3.073,3.111,4.964,3.111
		c2.268,0,3.313-0.034,4.324-0.066c1.005-0.033,1.952-0.064,4.041-0.064c0.523,0.068,1.69,1.776,2.25,2.597
		c1.143,1.672,2.129,3.116,3.595,3.116c2.766,0,3.399-4.195,4.449-20.866c0.328-5.21,0.79-12.535,1.496-15.978
		c0.756,3.952,1.128,13.066,1.414,20.072c0.837,20.482,1.442,25.634,4.403,25.634c2.769,0,3.398-4.455,4.128-9.616
		c0.232-1.644,0.568-4.026,0.904-4.96h6.556c2.349,0,4.227-2.277,6.044-4.48c1.451-1.761,3.096-3.757,4.392-3.757
		c1.147,0,2.942,2.032,4.384,3.664c2.025,2.293,3.938,4.458,6.233,4.571c3.294,0.165,5.562,0.011,6.882-1.292
		c1.052-1.038,1.136-2.571,1.129-2.732c0-28.201-22.942-51.144-51.144-51.144S15.946,33.916,15.946,62.117
		c0,28.2,22.943,51.143,51.144,51.143c4.569,0,8.702-0.4,11.883-0.908c3.437-0.404,6.643-1.156,8.283-2.297
		c3.378-2.348,3.773-4.104,3.366-5.424c2.021-1.568,4.607-3.67,7.941-6.477C110.874,87.793,129.005,72.289,128.016,71.113z"/>
</g>
</svg>
